<?xml version="1.0" encoding="UTF-8"?>
<!DOCTYPE svg PUBLIC "-//W3C//DTD SVG 1.1//EN" "http://www.w3.org/Graphics/SVG/1.1/DTD/svg11.dtd">
<svg xmlns="http://www.w3.org/2000/svg" version="1.1" width="3264px" height="1479px" style="shape-rendering:geometricPrecision; text-rendering:geometricPrecision; image-rendering:optimizeQuality; fill-rule:evenodd; clip-rule:evenodd" xmlns:xlink="http://www.w3.org/1999/xlink">
<g><path style="opacity:0.997" fill="#00c65d" d="M 179.5,121.5 C 565.5,121.333 951.5,121.5 1337.5,122C 1380.74,123.644 1421.41,134.644 1459.5,155C 1538.9,205.016 1566.06,275.516 1541,366.5C 1471.87,568.23 1402.53,769.897 1333,971.5C 1302.28,1064.87 1245.44,1137.7 1162.5,1190C 1107.4,1221.61 1048.07,1239.28 984.5,1243C 659.834,1243.5 335.167,1243.67 10.5,1243.5C 121.459,920.457 233.126,597.623 345.5,275C 290.696,224.534 235.529,174.367 180,124.5C 179.517,123.552 179.351,122.552 179.5,121.5 Z M 1052.5,393.5 C 1079.17,393.333 1105.84,393.5 1132.5,394C 1140.8,393.977 1145.8,397.977 1147.5,406C 1090.15,572.543 1032.65,739.043 975,905.5C 968.727,923.654 962.06,941.654 955,959.5C 950.278,965.558 944.111,969.058 936.5,970C 785.5,970.667 634.5,970.667 483.5,970C 536.11,819.442 588.444,668.776 640.5,518C 640.357,515.849 639.357,514.182 637.5,513C 593.868,474.37 550.535,435.37 507.5,396C 689.333,395.264 871,394.431 1052.5,393.5 Z"/></g>
<g><path style="opacity:0.98" fill="#00c65d" d="M 1606.5,694.5 C 1633.37,695.349 1651.53,708.349 1661,733.5C 1666.16,765.349 1653.66,786.849 1623.5,798C 1596.91,804.027 1575.41,796.193 1559,774.5C 1544.19,740.973 1553.02,715.806 1585.5,699C 1592.42,696.463 1599.42,694.963 1606.5,694.5 Z"/></g>
<g><path style="opacity:0.983" fill="#00c65d" d="M 1748.5,694.5 C 1764.1,694.883 1776.6,701.216 1786,713.5C 1788.45,717.531 1790.12,721.864 1791,726.5C 1791.67,885.5 1791.67,1044.5 1791,1203.5C 1786.43,1217.74 1776.93,1226.9 1762.5,1231C 1742.85,1235.67 1726.35,1230.5 1713,1215.5C 1710.53,1210.77 1708.87,1205.77 1708,1200.5C 1707.33,1043.83 1707.33,887.167 1708,730.5C 1709.31,714.518 1717.48,703.684 1732.5,698C 1737.87,696.362 1743.2,695.195 1748.5,694.5 Z"/></g>
<g><path style="opacity:0.984" fill="#00c65d" d="M 1602.5,863.5 C 1622.16,862.57 1636.66,870.57 1646,887.5C 1647.74,891.661 1648.74,895.995 1649,900.5C 1649.67,999.833 1649.67,1099.17 1649,1198.5C 1647.04,1214.24 1638.54,1224.74 1623.5,1230C 1606.96,1235.09 1591.63,1232.76 1577.5,1223C 1571.62,1218.12 1567.79,1211.95 1566,1204.5C 1565.33,1101.17 1565.33,997.833 1566,894.5C 1568.79,881.04 1576.63,871.873 1589.5,867C 1593.86,865.417 1598.19,864.25 1602.5,863.5 Z"/></g>
<g><path style="opacity:0.985" fill="#00c65d" d="M 1854.5,863.5 C 1871.48,862.407 1884.32,869.074 1893,883.5C 1925.89,961.939 1958.22,1040.61 1990,1119.5C 1994.55,1127.81 2001.05,1129.64 2009.5,1125C 2011.38,1123.46 2012.88,1121.62 2014,1119.5C 2040.67,1043.5 2067.33,967.5 2094,891.5C 2103.1,868.361 2119.94,859.528 2144.5,865C 2160.84,868.566 2172.01,878.066 2178,893.5C 2179.76,901.652 2179.09,909.652 2176,917.5C 2112.93,1071.31 2049.59,1224.98 1986,1378.5C 1976.84,1391.34 1964.34,1396.84 1948.5,1395C 1936.29,1393.81 1925.79,1388.97 1917,1380.5C 1907.67,1368.84 1905.33,1355.84 1910,1341.5C 1929.77,1301.62 1949.27,1261.62 1968.5,1221.5C 1955.98,1219.32 1946.15,1212.99 1939,1202.5C 1898.67,1109.17 1858.33,1015.83 1818,922.5C 1809.43,889.582 1821.6,869.916 1854.5,863.5 Z"/></g>
<g><path style="opacity:0.987" fill="#00c65d" d="M 2397.5,863.5 C 2417.08,862.537 2431.58,870.537 2441,887.5C 2442.2,890.774 2443.2,894.107 2444,897.5C 2444.33,959.167 2444.67,1020.83 2445,1082.5C 2447.5,1120 2467,1143.16 2503.5,1152C 2535.46,1159.45 2564.8,1153.79 2591.5,1135C 2606.51,1120.81 2614.34,1103.31 2615,1082.5C 2615.33,1020.5 2615.67,958.5 2616,896.5C 2621.28,875.228 2634.95,864.228 2657,863.5C 2678.98,864.493 2692.98,875.493 2699,896.5C 2699.67,961.833 2699.67,1027.17 2699,1092.5C 2693.53,1151.62 2663.7,1193.12 2609.5,1217C 2563.31,1234.94 2516.31,1237.27 2468.5,1224C 2411.58,1206.75 2376.42,1169.25 2363,1111.5C 2362.25,1106.51 2361.58,1101.51 2361,1096.5C 2359.4,1031.85 2359.07,967.179 2360,902.5C 2362.2,879.466 2374.7,866.466 2397.5,863.5 Z"/></g>
<g><path style="opacity:0.984" fill="#00c65d" d="M 2758.5,875.5 C 2833.83,875.333 2909.17,875.5 2984.5,876C 3003.59,876.951 3018.09,885.451 3028,901.5C 3034.38,919.685 3032.05,936.685 3021,952.5C 3015.83,958.333 3010.67,964.167 3005.5,970C 2951.7,1022.14 2898.2,1074.64 2845,1127.5C 2837.23,1137.06 2839.4,1142.22 2851.5,1143C 2905.5,1143.33 2959.5,1143.67 3013.5,1144C 3039.52,1150.57 3050.69,1167.07 3047,1193.5C 3042.86,1205.64 3034.69,1213.81 3022.5,1218C 3019.83,1218.67 3017.17,1219.33 3014.5,1220C 2927.17,1220.67 2839.83,1220.67 2752.5,1220C 2729.74,1216.41 2717.08,1203.24 2714.5,1180.5C 2714.68,1167.08 2718.85,1155.08 2727,1144.5C 2786.67,1085.5 2846.33,1026.5 2906,967.5C 2908.81,964.04 2910.98,960.207 2912.5,956C 2910.27,953.049 2907.27,951.382 2903.5,951C 2854.17,950.667 2804.83,950.333 2755.5,950C 2734.32,946.327 2723.32,933.827 2722.5,912.5C 2722.22,895.212 2730.22,883.712 2746.5,878C 2750.67,877.295 2754.67,876.461 2758.5,875.5 Z"/></g>
<g><path style="opacity:0.977" fill="#00c65d" d="M 2228.5,1133.5 C 2259.71,1132.01 2280.21,1146.01 2290,1175.5C 2293.37,1206.6 2280.2,1227.1 2250.5,1237C 2221.34,1242.5 2199.17,1232.66 2184,1207.5C 2174.55,1179.52 2182.05,1157.35 2206.5,1141C 2213.58,1137.36 2220.91,1134.86 2228.5,1133.5 Z"/></g>
</svg>
