<svg width="131" height="129" viewBox="0 0 131 129" fill="none" xmlns="http://www.w3.org/2000/svg">
<rect x="19.5" y="30.5" width="104" height="75" rx="9.5" fill="white" stroke="#00C65E"/>
<rect x="94" y="40" width="19" height="56" rx="2" fill="#CCEFDB"/>
<rect x="30" y="38" width="55" height="18" rx="2" fill="#FFB762"/>
<rect x="30" y="59" width="55" height="18" rx="2" fill="#FFB762"/>
<rect x="30" y="80" width="55" height="18" rx="2" fill="#FFB762"/>
<path d="M12 106H131V109.5C131 111.433 129.433 113 127.5 113H15.5C13.567 113 12 111.433 12 109.5V106Z" fill="#1E7836"/>
<path d="M97 112.556C97 112.556 107 112 109.5 109.5C112 107 112.556 97 112.556 97C112.556 97 113 107 115.5 109.5C118 112 128.113 112.556 128.113 112.556C128.113 112.556 118 113 115.5 115.5C113 118 112.556 128.113 112.556 128.113C112.556 128.113 112 118 109.5 115.5C107 113 97 112.556 97 112.556Z" fill="#FD9558"/>
<path d="M2 93.4853C2 93.4853 7.45455 93.1818 8.81818 91.8182C10.1818 90.4546 10.4853 85 10.4853 85C10.4853 85 10.7273 90.4546 12.0909 91.8182C13.4545 93.1818 18.9706 93.4853 18.9706 93.4853C18.9706 93.4853 13.4545 93.7273 12.0909 95.0909C10.7273 96.4546 10.4853 101.971 10.4853 101.971C10.4853 101.971 10.1818 96.4546 8.81818 95.0909C7.45455 93.7273 2 93.4853 2 93.4853Z" fill="#00C65E"/>
<path d="M-1.49477e-07 22.6274C-1.49477e-07 22.6274 15.1812 22.4539 18.8175 18.8175C22.4539 15.1812 22.6274 -6.73115e-06 22.6274 -6.73115e-06C22.6274 -6.73115e-06 23.9758 15.2485 27.9487 19.2214C31.9217 23.1944 47.3492 24.7218 47.3492 24.7218C47.3492 24.7218 31.989 24.7162 28.3526 28.3526C24.7162 31.989 24.7218 47.3492 24.7218 47.3492C24.7218 47.3492 23.1944 31.9217 19.2214 27.9487C15.2485 23.9758 -1.49477e-07 22.6274 -1.49477e-07 22.6274Z" fill="#FD9558"/>
</svg>
