<svg width="247.000000" height="218.000000" viewBox="0 0 247 218" fill="none" xmlns="http://www.w3.org/2000/svg" xmlns:xlink="http://www.w3.org/1999/xlink">
	<desc>
			Created with Pixso.
	</desc>
	<defs>
		<filter id="filter_23_95_dd" x="-30.000000" y="-37.999634" width="302.005493" height="311.000366" filterUnits="userSpaceOnUse" color-interpolation-filters="sRGB">
			<feFlood flood-opacity="0" result="BackgroundImageFix"/>
			<feColorMatrix in="SourceAlpha" type="matrix" values="0 0 0 0 0 0 0 0 0 0 0 0 0 0 0 0 0 0 127 0" result="hardAlpha"/>
			<feOffset dx="16" dy="9"/>
			<feGaussianBlur stdDeviation="15.3333"/>
			<feComposite in2="hardAlpha" operator="out" k2="-1" k3="1"/>
			<feColorMatrix type="matrix" values="0 0 0 0 0 0 0 0 0 0 0 0 0 0 0 0 0 0 0.25 0"/>
			<feBlend mode="normal" in2="BackgroundImageFix" result="effect_dropShadow_1"/>
			<feBlend mode="normal" in="SourceGraphic" in2="effect_dropShadow_1" result="shape"/>
		</filter>
		<filter id="filter_23_96_dd" x="168.073853" y="55.183716" width="84.579224" height="91.055420" filterUnits="userSpaceOnUse" color-interpolation-filters="sRGB">
			<feFlood flood-opacity="0" result="BackgroundImageFix"/>
			<feBlend mode="normal" in="SourceGraphic" in2="BackgroundImageFix" result="shape"/>
			<feGaussianBlur stdDeviation="4.33333" result="effect_layerBlur_1"/>
		</filter>
		<filter id="filter_23_97_dd" x="10.560425" y="17.165527" width="95.605835" height="79.095093" filterUnits="userSpaceOnUse" color-interpolation-filters="sRGB">
			<feFlood flood-opacity="0" result="BackgroundImageFix"/>
			<feBlend mode="normal" in="SourceGraphic" in2="BackgroundImageFix" result="shape"/>
			<feGaussianBlur stdDeviation="4.33333" result="effect_layerBlur_1"/>
		</filter>
		<filter id="filter_23_102_dd" x="-9.610596" y="-48.998291" width="304.610840" height="484.395874" filterUnits="userSpaceOnUse" color-interpolation-filters="sRGB">
			<feFlood flood-opacity="0" result="BackgroundImageFix"/>
			<feBlend mode="normal" in="SourceGraphic" in2="BackgroundImageFix" result="shape"/>
			<feGaussianBlur stdDeviation="16" result="effect_layerBlur_1"/>
		</filter>
		<filter id="filter_23_100_dd" x="-9.610718" y="-48.998047" width="770.968384" height="527.694336" filterUnits="userSpaceOnUse" color-interpolation-filters="sRGB">
			<feFlood flood-opacity="0" result="BackgroundImageFix"/>
			<feBlend mode="normal" in="SourceGraphic" in2="BackgroundImageFix" result="shape"/>
			<feGaussianBlur stdDeviation="16" result="effect_layerBlur_1"/>
		</filter>
		<filter id="filter_23_98_dd" x="-9.610840" y="-87.900269" width="770.968262" height="566.596558" filterUnits="userSpaceOnUse" color-interpolation-filters="sRGB">
			<feFlood flood-opacity="0" result="BackgroundImageFix"/>
			<feBlend mode="normal" in="SourceGraphic" in2="BackgroundImageFix" result="shape"/>
			<feGaussianBlur stdDeviation="16" result="effect_layerBlur_1"/>
		</filter>
		<clipPath id="clip23_106">
			<rect id="Frame 10" width="44.000000" height="24.000000" transform="translate(185.055176 99.600342) rotate(-23.115818)" fill="white" fill-opacity="0"/>
		</clipPath>
		<clipPath id="clip23_108">
			<rect id="Frame 11" width="45.000000" height="24.000000" transform="translate(28.999878 54.274902) rotate(-23.115829)" fill="white" fill-opacity="0"/>
		</clipPath>
		<clipPath id="clip23_109">
			<rect id="Frame 15" width="247.000000" height="218.000000" fill="white" fill-opacity="0"/>
		</clipPath>
		<linearGradient id="paint_linear_23_104_0" x1="552.922241" y1="348.499023" x2="-42.541107" y2="86.609207" gradientUnits="userSpaceOnUse">
			<stop offset="0.504161" stop-color="#FFFFFF"/>
			<stop offset="0.830380" stop-color="#FFFFFF" stop-opacity="0.000000"/>
		</linearGradient>
	</defs>
	<rect id="Frame 15" width="247.000000" height="218.000000" fill="#FFFFFF" fill-opacity="1.000000"/>
	<g clip-path="url(#clip23_109)">
		<rect id="Rectangle 67" width="247.000000" height="219.000000" transform="matrix(-1 0 0 1 247 0)" fill="#00B0F5" fill-opacity="1.000000"/>
		<g filter="url(#filter_23_95_dd)">
			<path id="Subtract" d="M140.506 -0.999634C125.737 3.36279 119.92 16.8507 118.755 22.7994C113.267 85.0955 36.9287 215.522 0.0057373 218L0 218.001L119.339 218.001C126.841 216.362 130.946 211.209 133.724 206.217C150.505 168.501 137.791 52.0298 170.148 26.7651C202.505 1.50061 205.515 -0.999634 210.005 -0.999634L140.506 -0.999634Z" clip-rule="evenodd" fill="#FFFFFF" fill-opacity="1.000000" fill-rule="evenodd"/>
		</g>
		<g filter="url(#filter_23_96_dd)">
			<ellipse id="Oval 1" rx="26.276672" ry="35.000000" transform="matrix(0.828752 0.828752 0.559616 -0.559616 210.363 100.711)" fill="#FFFFFF" fill-opacity="1.000000"/>
		</g>
		<g filter="url(#filter_23_97_dd)">
			<ellipse id="Oval 3" rx="26.276672" ry="35.000000" transform="matrix(-0.161898 -0.161898 0.986807 -0.986807 58.3633 56.713)" fill="#FFFFFF" fill-opacity="1.000000"/>
		</g>
		<path id="Subtract" d="M247 -0.998047L133.747 -0.998047C123.3 4.75867 113.457 11.1617 104.312 18.2159C57.1129 54.4832 32.1525 105.412 39.7295 164.316C41.9702 182.042 47.1281 200.059 55.1923 218L247 218L247 -0.998047Z" clip-rule="evenodd" fill="url(#paint_linear_23_104_0)" fill-opacity="1.000000" fill-rule="evenodd"/>
		<g clip-path="url(#clip23_106)">
			<path id="60%" d="M195.984 106.048Q197.219 105.521 198.442 105.588Q199.663 105.651 200.64 106.312Q201.618 106.972 202.128 108.167Q202.678 109.455 202.452 110.704Q202.226 111.953 201.336 112.954Q200.445 113.95 199.084 114.531Q196.381 115.685 194.148 114.684Q191.914 113.679 190.603 110.607Q189.667 108.415 189.827 106.5Q189.986 104.584 191.123 103.143Q192.26 101.702 194.209 100.87Q195.237 100.431 196.282 100.256Q197.328 100.081 198.173 100.219L198.003 102.882Q196.771 102.644 195.316 103.265Q193.681 103.963 193.133 105.327Q192.585 106.692 193.286 108.548Q193.94 106.921 195.984 106.048ZM197.969 112.379Q198.926 111.97 199.302 111.199Q199.679 110.428 199.303 109.547Q198.926 108.663 198.104 108.392Q197.283 108.122 196.29 108.545Q195.316 108.961 194.919 109.773Q194.527 110.583 194.889 111.432Q195.249 112.276 196.084 112.552Q196.918 112.827 197.969 112.379ZM210.563 109.631Q208.96 110.315 207.37 110.059Q205.784 109.802 204.434 108.605Q203.089 107.406 202.201 105.327Q201.316 103.252 201.38 101.451Q201.45 99.6484 202.361 98.3251Q203.276 96.9999 204.879 96.3155Q206.478 95.6331 208.064 95.8905Q209.654 96.1461 211 97.345Q212.349 98.5421 213.235 100.617Q214.123 102.696 214.053 104.499Q213.989 106.3 213.073 107.625Q212.162 108.948 210.563 109.631ZM209.488 107.111Q210.664 106.609 210.902 105.313Q211.143 104.011 210.24 101.895Q209.337 99.7803 208.232 99.0574Q207.131 98.3326 205.955 98.8348Q204.792 99.3313 204.549 100.629Q204.312 101.925 205.214 104.041Q206.117 106.156 207.22 106.885Q208.325 107.608 209.488 107.111ZM217.889 99.2409Q216.474 99.8447 215.168 99.2607Q213.867 98.6747 213.177 97.058Q212.485 95.4369 212.962 94.0918Q213.443 92.7448 214.858 92.141Q216.277 91.5352 217.569 92.125Q218.866 92.7129 219.558 94.3341Q220.248 95.9507 219.776 97.2939Q219.308 98.6351 217.889 99.2409ZM222.592 89.015L224.783 88.0795L221.486 104.708L219.294 105.643L222.592 89.015ZM217.245 97.732Q217.873 97.4636 218.01 96.8002Q218.148 96.1304 217.717 95.12Q217.284 94.1051 216.706 93.7465Q216.131 93.3815 215.502 93.6499Q214.896 93.9087 214.752 94.5913Q214.606 95.2694 215.032 96.2663Q215.455 97.2588 216.048 97.627Q216.638 97.9908 217.245 97.732ZM229.22 101.582Q228.299 101.975 227.387 101.854Q226.478 101.727 225.725 101.094Q224.975 100.458 224.519 99.389Q224.065 98.3246 224.124 97.3438Q224.186 96.3565 224.725 95.6168Q225.268 94.8751 226.189 94.4821Q227.603 93.8783 228.909 94.4623Q230.215 95.0464 230.905 96.6631Q231.597 98.2842 231.116 99.6312Q230.634 100.978 229.22 101.582ZM228.575 100.073Q229.2 99.8067 229.335 99.1279Q229.47 98.4491 229.046 97.4567Q228.622 96.4642 228.041 96.0966Q227.457 95.7246 226.833 95.991Q226.227 96.2498 226.079 96.9234Q225.929 97.5926 226.36 98.603Q226.794 99.6179 227.382 99.9772Q227.969 100.332 228.575 100.073Z" fill="#E36F00" fill-opacity="1.000000" fill-rule="evenodd"/>
		</g>
		<g clip-path="url(#clip23_108)">
			<path id="40%" d="M47.8119 63.7073L45.7147 64.6025L46.8688 67.306L43.9632 68.5462L42.8092 65.8428L35.8754 68.8025L35.0186 66.7952L37.6051 56.0392L40.7307 54.705L38.4085 64.8491L41.8664 63.373L40.839 60.9659L43.6502 59.7659L44.6777 62.173L46.7749 61.2778L47.8119 63.7073ZM55.4644 63.8969Q53.8612 64.5813 52.2709 64.3258Q50.685 64.0683 49.3352 62.8712Q47.9899 61.6723 47.1024 59.593Q46.2167 57.5183 46.2815 55.7174Q46.3508 53.9146 47.2619 52.5913Q48.1774 51.2661 49.7806 50.5818Q51.3794 49.8993 52.9652 50.1568Q54.5555 50.4123 55.9008 51.6113Q57.2506 52.8084 58.1362 54.8831Q59.0238 56.9623 58.9545 58.7651Q58.8897 60.566 57.9742 61.8912Q57.0631 63.2145 55.4644 63.8969ZM54.389 61.3776Q55.5656 60.8754 55.8034 59.5793Q56.0438 58.2769 55.1409 56.1617Q54.238 54.0465 53.1331 53.3237Q52.0326 52.5989 50.856 53.1011Q49.6929 53.5976 49.4506 54.8956Q49.2128 56.1916 50.1157 58.3068Q51.0186 60.4219 52.1209 61.1512Q53.2259 61.8741 54.389 61.3776ZM62.7899 53.5072Q61.3753 54.111 60.0695 53.527Q58.7682 52.941 58.0781 51.3243Q57.3861 49.7031 57.8631 48.3581Q58.3446 47.0111 59.7592 46.4072Q61.1783 45.8015 62.4706 46.3913Q63.7675 46.9791 64.4595 48.6003Q65.1496 50.217 64.6771 51.5602Q64.209 52.9014 62.7899 53.5072ZM67.4927 43.2813L69.6842 42.3458L66.3872 58.9743L64.1957 59.9097L67.4927 43.2813ZM62.1458 51.9983Q62.7745 51.7299 62.9108 51.0665Q63.0496 50.3967 62.6183 49.3863Q62.185 48.3714 61.6073 48.0128Q61.032 47.6478 60.4033 47.9161Q59.7971 48.1749 59.6531 48.8575Q59.5072 49.5356 59.9328 50.5326Q60.3564 51.5251 60.949 51.8933Q61.5396 52.257 62.1458 51.9983ZM74.1207 55.8483Q73.2001 56.2413 72.2886 56.1207Q71.3796 55.9937 70.6259 55.3598Q69.8767 54.724 69.4204 53.6552Q68.9661 52.5909 69.0252 51.61Q69.0869 50.6228 69.6259 49.883Q70.1694 49.1414 71.09 48.7484Q72.5046 48.1445 73.8104 48.7286Q75.1162 49.3126 75.8063 50.9293Q76.4984 52.5505 76.0168 53.8975Q75.5353 55.2445 74.1207 55.8483ZM73.4766 54.3394Q74.1008 54.073 74.2358 53.3942Q74.3708 52.7154 73.9471 51.7229Q73.5235 50.7305 72.9419 50.3629Q72.3583 49.9908 71.7341 50.2573Q71.1278 50.5161 70.9801 51.1897Q70.8303 51.8588 71.2617 52.8693Q71.6949 53.8842 72.2836 54.2434Q72.8704 54.5982 73.4766 54.3394Z" fill="#E36F00" fill-opacity="1.000000" fill-rule="evenodd"/>
		</g>
	</g>
</svg>
