<svg width="18" height="18" viewBox="0 0 18 18" fill="none" xmlns="http://www.w3.org/2000/svg">
<path fill-rule="evenodd" clip-rule="evenodd" d="M0.995703 0.525391C0.774789 0.525391 0.595703 0.704477 0.595703 0.925391C0.595703 1.1463 0.774789 1.32539 0.995703 1.32539H1.50805C2.22593 1.32539 2.85594 1.80354 3.04907 2.49496L5.2913 10.5224C5.29595 10.5391 5.30158 10.5552 5.30813 10.5707L5.55914 11.4966C5.72455 12.1067 6.27825 12.5303 6.91037 12.5303H14.5753C15.2074 12.5303 15.7611 12.1067 15.9265 11.4966L17.5141 5.64051C17.7555 4.75039 17.0852 3.87418 16.1629 3.87418H4.26493L3.81957 2.27974C3.52988 1.24261 2.58488 0.525391 1.50805 0.525391H0.995703ZM6.33127 11.2873L4.5384 4.67418H16.1629C16.5582 4.67418 16.8454 5.0497 16.742 5.43118L15.1544 11.2873C15.0835 11.5487 14.8462 11.7303 14.5753 11.7303H6.91037C6.63946 11.7303 6.40216 11.5487 6.33127 11.2873Z" fill="#363A45"/>
<path d="M9.27224 15.6772C9.27224 16.4632 8.63442 17.101 7.84686 17.101C7.05931 17.101 6.42148 16.4632 6.42148 15.6772C6.42148 14.8913 7.05931 14.2535 7.84686 14.2535C8.63442 14.2535 9.27224 14.8913 9.27224 15.6772Z" stroke="#363A45" stroke-width="0.8"/>
<path d="M15.0652 15.6772C15.0652 16.4632 14.4274 17.101 13.6398 17.101C12.8523 17.101 12.2145 16.4632 12.2145 15.6772C12.2145 14.8913 12.8523 14.2535 13.6398 14.2535C14.4274 14.2535 15.0652 14.8913 15.0652 15.6772Z" stroke="#363A45" stroke-width="0.8"/>
</svg>
