<svg width="243" height="242" viewBox="0 0 243 242" fill="none" xmlns="http://www.w3.org/2000/svg">
<rect x="4" y="4" width="235" height="182" rx="18" stroke="#363A45" stroke-width="8"/>
<path fill-rule="evenodd" clip-rule="evenodd" d="M71 216H58.9963H58C50.8203 216 45 221.82 45 229C45 236.18 50.8203 242 58 242H186C193.18 242 199 236.18 199 229C199 221.82 193.18 216 186 216H183H181.004H169H154H151C148.239 216 146 213.761 146 211V195C146 192.239 148.239 190 151 190H154V182H151C143.82 182 138 187.82 138 195V211C138 212.772 138.354 214.461 138.996 216H101.004C101.646 214.461 102 212.772 102 211V195C102 187.82 96.1797 182 89 182H87V190H89C91.7614 190 94 192.239 94 195V211C94 213.761 91.7614 216 89 216H87H71ZM151 224H89H71H58C55.2386 224 53 226.239 53 229C53 231.761 55.2386 234 58 234H186C188.761 234 191 231.761 191 229C191 226.239 188.761 224 186 224H169H151Z" fill="#363A45"/>
<path d="M32.0165 32C36.0165 29 39.0165 29 39.0165 29H178.017C178.017 29 181.017 57.5 128.517 109.5C76.0165 161.5 39.0165 160.5 39.0165 160.5C39.0165 160.5 36.5165 161 32.0165 157C27.5165 153 28.0165 146 28.0165 146L28.5165 39C28.5165 39 28.0165 35 32.0165 32Z" fill="#00C65E"/>
<circle cx="122" cy="161" r="12" fill="#00C65E"/>
</svg>
