<svg width="83" height="89" viewBox="0 0 83 89" fill="none" xmlns="http://www.w3.org/2000/svg">
<path d="M8.0131 84.0984L12.5466 83.1141L7.98663 81.9636L6.94182 77.7602L5.79567 81.9356L1.2062 82.9566L5.70503 84.0725L6.81281 88.5123L8.0131 84.0984Z" fill="#FFB762"/>
<path d="M73.2374 12.2176L81.4818 10.4275L73.1893 8.33533L71.2892 0.691403L69.2049 8.28435L60.8589 10.1412L69.0401 12.1704L71.0546 20.2443L73.2374 12.2176Z" fill="#00C65E"/>
<path d="M56.9595 17.285L20.101 17.2695C17.5092 17.2685 15.4073 19.3686 15.4062 21.9603L15.384 75.0143C15.3829 77.606 17.483 79.7079 20.0748 79.709L56.9333 79.7244C59.525 79.7255 61.6269 77.6254 61.628 75.0337L61.6503 21.9797C61.6513 19.388 59.5512 17.2861 56.9595 17.285Z" fill="#FD9558"/>
<path d="M43.1464 45.7865L22.7001 45.7779C21.9359 45.7776 21.3161 46.3968 21.3158 47.161L21.3148 49.5616C21.3145 50.3257 21.9337 50.9455 22.6979 50.9458L43.1443 50.9544C43.9084 50.9547 44.5282 50.3355 44.5285 49.5713L44.5295 47.1707C44.5298 46.4066 43.9106 45.7868 43.1464 45.7865Z" fill="white"/>
<path d="M50.7742 51.3179C52.4036 51.8883 54.1868 51.0298 54.7572 49.4005C55.3276 47.7712 54.4692 45.9879 52.8398 45.4176C51.2105 44.8472 49.4273 45.7056 48.8569 47.3349C48.2865 48.9643 49.1449 50.7475 50.7742 51.3179Z" fill="white"/>
<path d="M44.5502 63.1484L22.7369 63.1393C21.9497 63.1389 21.3113 63.7768 21.3109 64.564L21.31 66.8812C21.3096 67.6684 21.9475 68.3068 22.7347 68.3071L44.5481 68.3163C45.3352 68.3166 45.9737 67.6787 45.974 66.8915L45.975 64.5743C45.9753 63.7872 45.3374 63.1487 44.5502 63.1484Z" fill="white"/>
<path d="M51.5496 68.6851C53.179 69.2555 54.9622 68.397 55.5326 66.7677C56.103 65.1384 55.2445 63.3551 53.6152 62.7847C51.9859 62.2143 50.2026 63.0728 49.6323 64.7021C49.0619 66.3315 49.9203 68.1147 51.5496 68.6851Z" fill="white"/>
<path d="M36.791 28.6823L22.5044 28.6763C21.8553 28.676 21.3289 29.202 21.3286 29.851L21.3274 32.6684C21.3272 33.3175 21.8531 33.8439 22.5022 33.8441L36.7888 33.8501C37.4379 33.8504 37.9643 33.3244 37.9646 32.6753L37.9658 29.858C37.9661 29.2089 37.4401 28.6825 36.791 28.6823Z" fill="white"/>
<path d="M44.9578 34.2241C46.5872 34.7945 48.3704 33.9361 48.9408 32.3068C49.5112 30.6774 48.6527 28.8942 47.0234 28.3238C45.3941 27.7534 43.6108 28.6119 43.0405 30.2412C42.4701 31.8705 43.3285 33.6537 44.9578 34.2241Z" fill="white"/>
</svg>
