<svg width="331" height="389" viewBox="0 0 331 389" fill="none" xmlns="http://www.w3.org/2000/svg">
<rect x="92" y="105" width="146" height="280" rx="16" stroke="#363A45" stroke-width="8"/>
<path d="M128.104 101H198.687V115.416C198.687 119.006 195.777 121.916 192.187 121.916H134.604C131.014 121.916 128.104 119.006 128.104 115.416V101Z" fill="#363A45"/>
<path fill-rule="evenodd" clip-rule="evenodd" d="M165.25 10.0001C71.1218 10.1091 10.2142 71.7502 10.0006 135.663C15.2094 173.621 26.3493 252.219 29.878 267.902C31.2487 273.994 35.2765 277.763 40.2754 280.093C45.1227 282.353 50.5565 283.07 54.2017 283.02C58.042 281.871 67.4046 279.095 79.1059 275.698C82.8371 274.615 85.5294 271.078 87.1557 265.398C88.6955 260.022 88.8867 253.919 88.555 249.848C85.9872 239.902 79.9782 216.003 75.6214 196.595C73.7132 188.095 69.8521 184.339 66.267 182.447C62.4963 180.458 58.421 180.18 55.0663 180.01L35.8835 181.485L31.0643 181.856L30.5306 177.052L30.3653 175.565C26.0505 136.733 26 136.278 26 130C26 87.4487 51.0639 61.6215 80.7055 46.8345C109.97 32.2357 144.22 28.0374 165.245 28.4928C186.27 28.036 220.526 32.2333 249.794 46.8342C279.436 61.6211 304.5 87.4481 304.5 129.999C304.5 136.277 304.449 136.732 300.135 175.561L300.135 175.562L300.135 175.564L299.969 177.051L299.436 181.855L294.617 181.484L275.434 180.008C272.079 180.179 268.004 180.457 264.233 182.446C260.648 184.337 256.787 188.094 254.879 196.594C250.522 216.001 244.513 239.9 241.945 249.847C241.613 253.917 241.805 260.02 243.344 265.397C244.971 271.076 247.663 274.613 251.394 275.696C263.095 279.093 272.458 281.869 276.298 283.018C279.943 283.068 285.377 282.352 290.225 280.091C295.224 277.761 299.251 273.992 300.622 267.901C304.151 252.217 315.291 173.62 320.499 135.662C320.286 71.7498 259.378 10.1091 165.25 10.0001ZM165 0.000558651C66.7097 0.220262 0 65.2093 0 136V136.341L0.0463843 136.679C5.19115 174.186 16.4614 253.828 20.122 270.098C22.3513 280.006 29.0735 285.904 36.0496 289.157C42.9024 292.352 50.3254 293.187 55.1959 292.996L55.8295 292.971L56.4367 292.789C59.7544 291.794 69.5067 288.898 81.8941 285.302C89.5738 283.072 93.7654 276.765 96 270.543V238.568C93.0262 226.778 88.7106 209.248 85.3786 194.405C82.8868 183.305 77.3312 176.978 70.933 173.603C65.0259 170.486 58.8909 170.185 55.5567 170.021L55.2497 170.006L54.9328 169.99L54.6165 170.015L39.9357 171.144C35.9994 135.702 35.9994 135.413 36 130.189L36 130C36 92.3745 57.7694 69.4517 85.1695 55.7829C112.653 42.0724 145.256 38.047 165.122 38.4925L165.122 38.4983L165.246 38.4953L165.378 38.4985L165.378 38.4923C185.244 38.0468 217.847 42.0722 245.331 55.7825C272.731 69.4513 294.5 92.3739 294.5 129.999V130.189C294.501 135.412 294.501 135.701 290.564 171.143L275.883 170.014L275.567 169.989L275.25 170.005L274.943 170.02C271.609 170.184 265.474 170.485 259.567 173.601C253.169 176.977 247.613 183.304 245.121 194.403C241.597 210.101 236.973 228.804 234 240.545V269.05C236.086 275.727 240.311 282.892 248.606 285.3C260.993 288.896 270.746 291.792 274.063 292.787L274.671 292.969L275.304 292.994C280.175 293.185 287.598 292.35 294.45 289.155C301.426 285.902 308.149 280.004 310.378 270.096C314.039 253.827 325.309 174.185 330.454 136.679L330.5 136.34V135.999C330.5 65.2088 263.79 0.22026 165.5 0.000558647V0L165.25 0.000139622L165 0V0.000558651Z" fill="#363A45"/>
<rect x="23.3071" y="204.347" width="44" height="69" rx="15" transform="rotate(-14 23.3071 204.347)" fill="#00C65E"/>
<rect x="263.644" y="192.978" width="44" height="69" rx="15" transform="rotate(14 263.644 192.978)" fill="#00C65E"/>
</svg>
