<svg width="182" height="179" viewBox="0 0 182 179" fill="none" xmlns="http://www.w3.org/2000/svg">
<rect x="55.5" y="2.5" width="91" height="174" rx="11.5" fill="white" stroke="#00C65E" stroke-width="5"/>
<path d="M78 0H122V6.5C122 10.0899 119.09 13 115.5 13H84.5C80.9101 13 78 10.0899 78 6.5V0Z" fill="#00C65E"/>
<path d="M130.494 5.5C130.494 5.50077 130.494 5.50154 130.494 5.5023C130.49 5.83094 130.482 6.31916 130.469 6.95853C130.443 8.23726 130.395 10.1206 130.309 12.5412C130.136 17.3824 129.811 24.3727 129.197 32.9731C127.971 50.173 125.594 73.8161 120.992 99.5879C116.387 125.378 109.875 144.04 104.509 156.263C101.826 162.375 99.4298 166.876 97.7017 169.853C96.8376 171.341 96.1406 172.448 95.6584 173.185C95.5838 173.299 95.5145 173.404 95.4504 173.5H135H135.036L130.494 5.5ZM130.494 5.5H134.999L134.999 5.5L135 5.5L135 5.5L135.002 5.50003L135.021 5.50043C135.039 5.50092 135.068 5.50194 135.107 5.50411C135.185 5.50845 135.304 5.51734 135.457 5.53556C135.763 5.572 136.206 5.64563 136.741 5.79426C137.811 6.09144 139.244 6.6875 140.68 7.88411C142.074 9.04622 142.784 10.6053 143.143 11.9006C143.322 12.5456 143.411 13.1163 143.456 13.5243C143.478 13.728 143.489 13.8903 143.495 14C143.497 14.0548 143.499 14.0964 143.499 14.1234L143.5 14.1527L143.5 14.1588L143.5 14.1589V14.1596V165V165.036L143.505 165.07L143.505 165.07L143.505 165.07L143.505 165.071L143.505 165.073L143.508 165.095C143.51 165.116 143.514 165.15 143.517 165.195C143.524 165.284 143.531 165.42 143.531 165.594C143.531 165.941 143.502 166.439 143.385 167.027C143.15 168.2 142.564 169.729 141.146 171.146C139.729 172.564 138.2 173.15 137.027 173.385C136.439 173.502 135.941 173.531 135.594 173.531C135.42 173.531 135.284 173.524 135.195 173.517C135.15 173.514 135.116 173.51 135.095 173.508L135.073 173.505L135.071 173.505L135.07 173.505L135.07 173.505L135.069 173.505L130.494 5.5Z" fill="#CCEFDB" stroke="#CCEFDB"/>
<rect x="64" y="26" width="74" height="5" rx="2.5" fill="#FFB762"/>
<rect x="64" y="45" width="74" height="5" rx="2.5" fill="#FFB762"/>
<rect x="64" y="64" width="46" height="5" rx="2.5" fill="#FFB762"/>
<rect x="64" y="82" width="37" height="5" rx="2.5" fill="#FFB762"/>
<rect x="64" y="101" width="74" height="21" rx="3" fill="#FFB762"/>
<rect x="64" y="134" width="74" height="28" rx="3" fill="#FFB762"/>
<path d="M0 31L19.4649 26.2894L24 7L28.7073 26.2894L48 31L28.7073 35.4205L24.5 55L19.4649 35.4205L0 31Z" fill="#00C65E"/>
<path d="M133 130L152.465 125.289L157 106L161.707 125.289L181 130L161.707 134.421L157.5 154L152.465 134.421L133 130Z" fill="#FFF06E"/>
</svg>
