<svg width="20" height="20" viewBox="0 0 20 20" fill="none" xmlns="http://www.w3.org/2000/svg">
<path d="M14.746 0.894531H5.45215C2.89598 0.894531 0.797852 2.99266 0.797852 5.5636V14.8574C0.797852 17.4136 2.89598 19.5117 5.45215 19.5117H14.746C17.3169 19.5117 19.415 17.4136 19.415 14.8426V5.5636C19.415 2.99266 17.3169 0.894531 14.746 0.894531ZM12.6035 10.2031H10.8452V15.9656H8.62889V10.2031H7.44684V7.83903H8.48113V6.8343C8.48113 5.88866 8.95395 4.39633 10.9486 4.39633H12.766V6.36148H11.4806C11.2737 6.36148 10.993 6.49446 10.993 6.9525V7.83903H12.8104L12.6035 10.2031Z" fill="#00C65E"/>
</svg>
