<svg width="19" height="20" viewBox="0 0 19 20" fill="none" xmlns="http://www.w3.org/2000/svg">
<path d="M10.9546 9.00737C10.5852 8.49023 9.97944 8.15039 9.29977 8.15039C8.62009 8.15039 8.01429 8.49023 7.64491 9.00737C7.4085 9.34721 7.26074 9.76092 7.26074 10.2042C7.26074 11.3271 8.17683 12.2432 9.29977 12.2432C10.4227 12.2432 11.3388 11.3271 11.3388 10.2042C11.3388 9.76092 11.191 9.34721 10.9546 9.00737Z" fill="#00C65E"/>
<path d="M12.2408 9.02148C12.3885 9.317 12.4772 9.78981 12.4772 10.2035C12.4772 11.947 11.0587 13.3803 9.30044 13.3803C7.54215 13.3803 6.1237 11.9618 6.1237 10.2035C6.1237 9.77504 6.21235 9.317 6.36011 9.02148H4.57227V13.7644C4.57227 14.385 5.11896 14.9317 5.73953 14.9317H12.8613C13.4819 14.9317 14.0286 14.385 14.0286 13.7644V9.02148H12.2408Z" fill="#00C65E"/>
<path d="M13.4962 5.74134H11.7822V7.70648H13.7326V5.99252V5.72656L13.4962 5.74134Z" fill="#00C65E"/>
<path d="M13.9393 0.894531H4.66028C2.08934 0.894531 -0.00878906 2.99266 -0.00878906 5.5636V14.8574C-0.00878906 17.4136 2.08934 19.5117 4.66028 19.5117H13.9541C16.525 19.5117 18.6232 17.4136 18.6232 14.8426V5.5636C18.6084 2.99266 16.5103 0.894531 13.9393 0.894531ZM15.0623 9.0063V13.764C15.0623 15.0052 14.1018 15.9656 12.8607 15.9656H5.7389C4.49775 15.9656 3.53734 15.0052 3.53734 13.764V9.0063V6.64222C3.53734 5.40107 4.49775 4.44066 5.7389 4.44066H12.8607C14.1018 4.44066 15.0623 5.40107 15.0623 6.64222V9.0063Z" fill="#00C65E"/>
</svg>
