<svg width="10" height="15" viewBox="0 0 10 15" fill="none" xmlns="http://www.w3.org/2000/svg">
<path opacity="0.997" fill-rule="evenodd" clip-rule="evenodd" d="M8.53564 1.46484C9.47314 2.40234 10 3.67383 10 5C10 9 6.6665 13.334 5 15C3.3335 13.334 0 9 0 5C0 3.67383 0.526855 2.40234 1.46436 1.46484C2.40234 0.527344 3.67383 0 5 0C6.32617 0 7.59766 0.527344 8.53564 1.46484ZM2.65865 3.00024C4.16301 2.99959 5.66738 3.00024 7.17174 3.00219C7.34026 3.0086 7.49877 3.05147 7.64722 3.1308C7.95666 3.32573 8.06252 3.60049 7.96485 3.95509C7.69543 4.74129 7.42519 5.52726 7.15421 6.31297C7.03448 6.67686 6.81296 6.9607 6.48971 7.16453C6.27497 7.28773 6.04374 7.35659 5.79599 7.37109C4.53066 7.37304 3.26533 7.3737 2 7.37304C2.43244 6.11404 2.86764 4.85585 3.3056 3.59848C3.09201 3.4018 2.87701 3.20628 2.6606 3.01194C2.65871 3.00824 2.65807 3.00434 2.65865 3.00024ZM6.06101 4.06032C6.16495 4.05966 6.26889 4.06032 6.37279 4.06226C6.40514 4.06217 6.42463 4.07776 6.43125 4.10903C6.20774 4.7581 5.98365 5.40701 5.75897 6.05574C5.73452 6.1265 5.70853 6.19665 5.68102 6.2662C5.66262 6.28981 5.63858 6.30345 5.60892 6.30712C5.02042 6.30972 4.43193 6.30972 3.84343 6.30712C4.04847 5.72035 4.25243 5.13315 4.45531 4.54553C4.45475 4.53715 4.45086 4.53065 4.44362 4.52605C4.27357 4.37549 4.10469 4.2235 3.93697 4.07006C4.64563 4.06719 5.35364 4.06394 6.06101 4.06032Z" fill="#00C65D"/>
</svg>
