<svg width="19" height="20" viewBox="0 0 19 20" fill="none" xmlns="http://www.w3.org/2000/svg">
<path fill-rule="evenodd" clip-rule="evenodd" d="M4.85742 0.894531C2.28692 0.894531 0.203125 2.97833 0.203125 5.54883V14.8574C0.203125 17.4279 2.28692 19.5117 4.85742 19.5117H14.166C16.7365 19.5117 18.8203 17.4279 18.8203 14.8574V5.54883C18.8203 2.97833 16.7365 0.894531 14.166 0.894531H4.85742ZM15.0207 6.51847C15.4313 6.51847 15.5176 6.72985 15.4313 7.01745V7.01755C15.2587 7.80858 13.6049 10.1384 13.6049 10.1384C13.461 10.3684 13.4035 10.4834 13.6049 10.7423C13.6757 10.8416 13.8269 10.9897 14 11.1593C14.178 11.3337 14.3792 11.5307 14.5396 11.7203C15.1227 12.3764 15.5622 12.9297 15.6846 13.3111C15.7965 13.6938 15.6025 13.8878 15.2147 13.8878H13.8572C13.4936 13.8878 13.3105 13.6841 12.9151 13.2442C12.7474 13.0576 12.5415 12.8285 12.2673 12.5544C11.4619 11.7778 11.1168 11.6772 10.9153 11.6772C10.6421 11.6772 10.5604 11.7546 10.5604 12.1424V13.3598C10.5604 13.6938 10.4537 13.8878 9.59073 13.8878C8.15255 13.8878 6.57222 13.0145 5.45035 11.4039C3.76772 9.04536 3.30743 7.26199 3.30743 6.90245C3.30743 6.70105 3.385 6.51847 3.77286 6.51847H5.13036C5.4773 6.51847 5.60782 6.67032 5.73794 7.04625C6.40195 8.9802 7.52131 10.6705 7.98151 10.6705C8.1541 10.6705 8.23323 10.591 8.23323 10.1527V8.15358C8.20205 7.5846 8.00331 7.33853 7.8561 7.15626C7.76518 7.04369 7.69391 6.95545 7.69391 6.8305C7.69391 6.67866 7.82365 6.51847 8.0393 6.51847H10.1725C10.4602 6.51847 10.5604 6.67226 10.5604 7.01745V9.70685C10.5604 9.99445 10.6853 10.095 10.7716 10.095C10.9442 10.095 11.088 9.99445 11.4044 9.67806C12.3823 8.58507 13.0727 6.90245 13.0727 6.90245C13.159 6.70105 13.318 6.51847 13.6632 6.51847H15.0207Z" fill="#00C65E"/>
</svg>
