<svg width="101" height="105" viewBox="0 0 101 105" fill="none" xmlns="http://www.w3.org/2000/svg">
<g clip-path="url(#clip0_1649_35168)">
<path opacity="0.2" d="M93.2266 85.9882C91.2585 100.554 75.5201 108.837 62.3992 102.213L19.4518 80.528C3.93957 72.6958 3.75301 50.612 19.1307 42.5188L68.52 16.5252C83.8977 8.43198 101.995 21.0892 99.6685 38.3101L93.2266 85.9882Z" fill="#00C65E"/>
<path d="M56.0545 48.9488C63.4363 48.9488 69.4205 42.9646 69.4205 35.5828C69.4205 28.201 63.4363 22.2168 56.0545 22.2168C48.6726 22.2168 42.6885 28.201 42.6885 35.5828C42.6885 42.9646 48.6726 48.9488 56.0545 48.9488Z" fill="#FACFB0"/>
<path d="M54.0078 48.9512H58.0928C60.9186 48.9512 63.7168 49.5078 66.3276 50.5892C68.9383 51.6706 71.3105 53.2556 73.3087 55.2538C75.3069 57.252 76.8919 59.6242 77.9733 62.2349C79.0547 64.8457 79.6113 67.6439 79.6113 70.4697V74.9834C79.6113 77.3497 78.6713 79.6191 76.9981 81.2924C75.3248 82.9657 73.0554 83.9057 70.689 83.9057H41.4028C39.0364 83.9057 36.767 82.9657 35.0938 81.2924C33.4205 79.6191 32.4805 77.3497 32.4805 74.9834V70.4785C32.4793 67.6511 33.0354 64.8513 34.1168 62.239C35.1982 59.6266 36.7839 57.253 38.7831 55.2538C40.7823 53.2546 43.1559 51.6689 45.7683 50.5875C48.3806 49.5061 51.1804 48.95 54.0078 48.9512Z" fill="#35B661"/>
<path d="M41.2982 79.3035C40.0965 79.3035 38.944 78.8261 38.0942 77.9764C37.2445 77.1266 36.7671 75.9741 36.7671 74.7724V66.5761C36.7671 65.3743 37.2445 64.2218 38.0942 63.3721C38.944 62.5223 40.0965 62.0449 41.2982 62.0449C42.5 62.0449 43.6525 62.5223 44.5022 63.3721C45.352 64.2218 45.8294 65.3743 45.8294 66.5761V74.7461C45.8328 75.3434 45.7182 75.9354 45.492 76.4882C45.2659 77.0409 44.9326 77.5436 44.5115 77.9671C44.0904 78.3906 43.5898 78.7267 43.0383 78.9561C42.4868 79.1854 41.8955 79.3035 41.2982 79.3035V79.3035Z" stroke="#FFB762" stroke-width="4.18"/>
<path d="M53.6928 95.2142H27.4506C26.802 95.2142 26.1598 95.0863 25.5606 94.8379C24.9615 94.5894 24.4173 94.2252 23.959 93.7662C23.5008 93.3071 23.1376 92.7622 22.8901 92.1626C22.6427 91.5631 22.516 90.9206 22.5171 90.272V72.7772C22.5148 72.1264 22.6413 71.4815 22.8893 70.8798C23.1373 70.2781 23.5019 69.7314 23.9621 69.2712C24.4223 68.811 24.969 68.4464 25.5707 68.1984C26.1725 67.9504 26.8173 67.8239 27.4681 67.8262H53.7103C54.3611 67.8239 55.0059 67.9504 55.6077 68.1984C56.2094 68.4464 56.7561 68.811 57.2163 69.2712C57.6765 69.7314 58.0411 70.2781 58.2891 70.8798C58.5371 71.4815 58.6636 72.1264 58.6613 72.7772V90.272C58.6625 90.9235 58.5345 91.5689 58.2849 92.1708C58.0353 92.7726 57.669 93.3191 57.207 93.7786C56.7451 94.2381 56.1967 94.6016 55.5935 94.848C54.9903 95.0944 54.3443 95.2189 53.6928 95.2142Z" fill="#FFB762"/>
<path d="M54.4095 92.4764H28.9547C28.39 92.4787 27.8305 92.3692 27.3083 92.1542C26.7862 91.9392 26.3118 91.6229 25.9125 91.2236C25.5132 90.8243 25.1969 90.3499 24.9819 89.8278C24.7669 89.3057 24.6574 88.7461 24.6597 88.1814V75.0079C24.6574 74.4432 24.7669 73.8837 24.9819 73.3615C25.1969 72.8394 25.5132 72.365 25.9125 71.9657C26.3118 71.5664 26.7862 71.2502 27.3083 71.0351C27.8305 70.8201 28.39 70.7106 28.9547 70.7129H54.4095C54.9742 70.7106 55.5337 70.8201 56.0559 71.0351C56.578 71.2502 57.0524 71.5664 57.4517 71.9657C57.851 72.365 58.1672 72.8394 58.3823 73.3615C58.5973 73.8837 58.7068 74.4432 58.7045 75.0079V88.1814C58.6843 89.3142 58.2253 90.395 57.4242 91.1961C56.623 91.9972 55.5423 92.4562 54.4095 92.4764Z" fill="white"/>
<path d="M55.3017 81.3864H28.0624C27.1615 81.3864 26.2973 81.0291 25.6594 80.3928C25.0215 79.7566 24.662 78.8934 24.6597 77.9924V71.1957C24.6597 70.2932 25.0182 69.4277 25.6563 68.7896C26.2944 68.1515 27.1599 67.793 28.0624 67.793H55.3017C56.2042 67.793 57.0697 68.1515 57.7078 68.7896C58.346 69.4277 58.7045 70.2932 58.7045 71.1957V77.9924C58.6953 78.8912 58.3336 79.7505 57.6972 80.3853C57.0608 81.0201 56.2006 81.3796 55.3017 81.3864Z" fill="#FFB762"/>
<path d="M41.7087 83.8332C41.4617 83.8367 41.2165 83.7915 40.987 83.7001C40.7574 83.6088 40.5482 83.4732 40.3711 83.301C40.194 83.1288 40.0526 82.9234 39.9549 82.6965C39.8572 82.4696 39.8052 82.2257 39.8018 81.9787V78.3486C39.8041 77.8575 40.0002 77.3871 40.3475 77.0398C40.6947 76.6926 41.1651 76.4964 41.6562 76.4941H41.7087C42.1998 76.4964 42.6702 76.6926 43.0174 77.0398C43.3647 77.3871 43.5608 77.8575 43.5631 78.3486V81.9787C43.5667 82.2233 43.5211 82.466 43.4292 82.6926C43.3372 82.9192 43.2008 83.125 43.0279 83.2979C42.8549 83.4708 42.6491 83.6073 42.4225 83.6992C42.1959 83.7912 41.9532 83.8367 41.7087 83.8332Z" fill="#FFB762"/>
<path d="M72.9985 31.8489H70.1906C68.3886 25.1309 62.7553 20.2148 56.0723 20.2148C49.1444 20.2148 43.3361 25.4633 41.7616 32.5924C41.714 32.7841 41.6905 32.981 41.6916 33.1785C41.6845 33.3367 41.7096 33.4948 41.7653 33.6432C41.821 33.7915 41.9062 33.927 42.0158 34.0414C42.1254 34.1559 42.257 34.247 42.4027 34.3091C42.5485 34.3713 42.7053 34.4032 42.8638 34.4031L72.9985 34.3506C73.3302 34.3506 73.6484 34.2188 73.883 33.9842C74.1176 33.7496 74.2493 33.4315 74.2493 33.0997C74.2493 32.768 74.1176 32.4498 73.883 32.2152C73.6484 31.9806 73.3302 31.8489 72.9985 31.8489Z" fill="#35B661"/>
</g>
<defs>
<clipPath id="clip0_1649_35168">
<rect width="100" height="104" fill="white" transform="translate(0.164551 0.5)"/>
</clipPath>
</defs>
</svg>
