<svg width="101" height="105" viewBox="0 0 101 105" fill="none" xmlns="http://www.w3.org/2000/svg">
<g clip-path="url(#clip0_1649_35184)">
<path opacity="0.2" d="M93.5503 85.9882C91.5822 100.554 75.8438 108.837 62.723 102.213L19.7755 80.528C4.2633 72.6958 4.07674 50.612 19.4544 42.5188L68.8437 16.5252C84.2214 8.43198 102.319 21.0892 99.9922 38.3101L93.5503 85.9882Z" fill="#FFB762"/>
<path d="M41.2146 23.3882C37.2183 23.318 32.7019 19.151 29.0841 20.2513C25.4662 21.3515 23.9528 27.3913 20.8079 29.6152C17.6629 31.8391 11.4676 31.0315 9.13848 34.1099C6.80933 37.1882 9.24489 42.7949 7.95617 46.4585C6.66746 50.1221 1.28795 52.9547 1.21701 56.8992C1.14607 60.8438 6.49011 63.9924 7.60148 67.5741C8.71285 71.1558 6.14724 76.856 8.31087 79.9695C10.4745 83.083 16.7289 82.568 19.8266 84.8739C22.9242 87.1797 24.0592 93.2077 27.7717 94.4719C31.4841 95.736 36.0479 91.6744 40.0086 91.7446C43.9693 91.8149 48.5094 95.9818 52.1746 94.8815C55.8397 93.7813 57.294 87.7416 60.4507 85.5176C63.6075 83.2937 69.791 84.1013 72.1556 81.0347C74.5202 77.968 72.0492 72.3497 73.3379 68.686C74.6266 65.0224 79.9589 62.2015 80.0298 58.2219C80.1007 54.2422 74.7567 51.1287 73.6453 47.547C72.5339 43.9654 75.1114 38.2768 72.9005 35.1633C70.6895 32.0498 64.4824 32.5648 61.3848 30.259C58.2871 27.9531 57.1521 21.9134 53.4396 20.661C49.7272 19.4085 45.1989 23.4584 41.2146 23.3882Z" fill="#00C65E"/>
<path d="M41.1439 27.1802C37.5969 27.1802 33.5771 23.4112 30.3612 24.3827C27.1453 25.3542 25.7975 30.7267 23.0072 32.6697C20.217 34.6128 14.7311 33.969 12.6266 36.6962C10.522 39.4235 12.7211 44.4214 11.5861 47.6754C10.4511 50.9293 5.67457 53.4693 5.57999 57.0393C5.4854 60.6093 10.3092 63.3365 11.2669 66.5319C12.2246 69.7273 9.96636 74.7253 11.929 77.5345C13.8916 80.3437 19.413 79.8755 22.1678 81.9121C24.9226 83.9488 25.9275 89.3213 29.2617 90.445C32.5958 91.5686 36.5565 87.9518 40.1034 87.9518C43.6504 87.9518 47.6702 91.7208 50.8861 90.7493C54.102 89.7778 55.4498 84.4404 58.2401 82.4505C61.0303 80.4607 66.5162 81.163 68.6207 78.4358C70.7253 75.7085 68.538 70.7106 69.6612 67.4449C70.7844 64.1792 75.5727 61.6627 75.6673 58.1512C75.7619 54.6398 70.9381 51.8423 69.9922 48.6586C69.0464 45.4749 71.2809 40.4652 69.3183 37.6443C67.3557 34.8234 61.8461 35.3033 59.0913 33.2784C56.3365 31.2535 55.3198 25.916 52.0566 24.7455C48.7934 23.5751 44.6908 27.2387 41.1439 27.1802Z" fill="#CCE6D6"/>
<path d="M47.386 56.9111C47.8516 57.1439 48.3018 57.4058 48.7338 57.6954C49.3576 58.0968 49.9294 58.5725 50.4363 59.1117C51.0012 59.7759 51.4525 60.5271 51.7723 61.3356C52.1923 62.3161 52.4017 63.3724 52.3871 64.4374C52.3855 65.6982 52.0965 66.9424 51.5418 68.0772C50.987 69.2121 50.1808 70.2085 49.1831 70.9921C46.8054 72.9116 43.7939 73.8915 40.7296 73.7427C39.2836 73.7488 37.8423 73.5798 36.4378 73.2394C35.2646 72.9945 34.1281 72.6011 33.0564 72.0689C32.2655 71.6248 31.5034 71.1323 30.7745 70.5941C30.2454 70.2436 29.7645 69.8265 29.3439 69.3534L28.8828 68.8501L32.9027 64.6598L33.1864 65.0109C33.4666 65.2968 33.7669 65.5628 34.085 65.8068C34.5468 66.1882 35.0413 66.5289 35.5629 66.8252C36.9389 67.579 38.483 67.9813 40.0556 67.9956C41.4844 68.075 42.8967 67.6614 44.0518 66.8252C44.4923 66.4897 44.847 66.0564 45.0872 65.5603C45.3275 65.0643 45.4467 64.5192 45.4352 63.9692C45.4481 63.4201 45.3307 62.8757 45.0925 62.3797C44.8543 61.8837 44.502 61.4499 44.0637 61.1132C42.9868 60.2919 41.6498 59.877 40.2921 59.9427H36.9343V54.4648H40.0556C41.1921 54.5237 42.3084 54.1511 43.1769 53.4231C43.5632 53.0815 43.8692 52.6604 44.0734 52.1892C44.2777 51.7181 44.3752 51.2083 44.3592 50.6959C44.3705 50.2096 44.2699 49.7272 44.0651 49.2852C43.8602 48.8431 43.5565 48.4529 43.1769 48.1442C42.3003 47.434 41.1866 47.0748 40.0556 47.1376C38.944 47.1314 37.8465 47.384 36.8516 47.875C36.058 48.2374 35.3309 48.7279 34.6998 49.3264L34.0259 50.0404L29.9942 46.0607C30.0888 45.9437 30.2188 45.7798 30.3962 45.5808C30.7813 45.1578 31.2004 44.7663 31.6494 44.4103C32.3095 43.8694 33.0224 43.3949 33.7776 42.9941C35.9436 41.9487 38.3199 41.4006 40.7296 41.3905C43.4957 41.2554 46.215 42.1348 48.3673 43.8602C49.2845 44.6059 50.0202 45.5467 50.5196 46.6126C51.0191 47.6785 51.2694 48.8421 51.2521 50.017C51.2619 50.8897 51.1013 51.7562 50.7792 52.5686C50.5275 53.2606 50.1598 53.9056 49.6915 54.4765C49.2983 54.9292 48.8672 55.3481 48.4027 55.7289C48.0384 56.0154 47.6416 56.2589 47.2204 56.4546L46.783 56.6653L47.386 56.9111Z" fill="white"/>
</g>
<defs>
<clipPath id="clip0_1649_35184">
<rect width="100" height="104" fill="white" transform="translate(0.5 0.5)"/>
</clipPath>
</defs>
</svg>
