<svg width="101" height="105" viewBox="0 0 101 105" fill="none" xmlns="http://www.w3.org/2000/svg">
<g clip-path="url(#clip0_1649_35211)">
<path opacity="0.2" d="M93.5503 85.9882C91.5822 100.554 75.8438 108.837 62.723 102.213L19.7755 80.528C4.2633 72.6958 4.07674 50.612 19.4544 42.5188L68.8437 16.5252C84.2214 8.43198 102.319 21.0892 99.9922 38.3101L93.5503 85.9882Z" fill="#FFB762"/>
<path d="M30.1665 33.7158C30.9674 32.9726 32.0875 32.6801 33.1496 32.9368L53.614 37.8819C54.6756 38.1384 55.5381 38.9094 55.9117 39.9356L59.1765 48.904C59.6154 50.1098 59.6888 51.4184 59.3874 52.6658L50.4583 89.6169C50.0354 91.367 48.2738 92.4429 46.5237 92.02L14.7356 84.3385C12.9855 83.9156 11.9096 82.154 12.3325 80.4039L21.259 43.4633C21.5601 42.2171 22.222 41.0873 23.1619 40.2152L30.1665 33.7158Z" fill="#00C65E"/>
<path d="M24.7089 34.3534C25.182 33.3684 26.117 32.6859 27.1993 32.5356L48.0527 29.6401C49.1344 29.4899 50.2194 29.8913 50.9429 30.7093L57.2662 37.8582C58.1164 38.8194 58.664 40.0102 58.8405 41.2812L64.0688 78.9346C64.3164 80.718 63.0714 82.3644 61.288 82.6121L28.8957 87.1098C27.1124 87.3574 25.4659 86.1124 25.2183 84.3291L19.9915 46.6863C19.8152 45.4164 20.0172 44.1227 20.5722 42.967L24.7089 34.3534Z" fill="#CCEFDB"/>
<path d="M40.531 58.3764C40.1798 58.8355 39.7411 59.2205 39.2403 59.509C38.7394 59.7975 38.1864 59.9839 37.613 60.0574C37.0397 60.1308 36.4575 60.0899 35.9001 59.937C35.3427 59.784 34.8211 59.5221 34.3656 59.1663C33.9104 58.8422 33.5273 58.4275 33.2401 57.9482C32.953 57.4688 32.7681 56.9353 32.6971 56.3811C32.6261 55.8269 32.6705 55.264 32.8275 54.7278C32.9845 54.1915 33.2508 53.6936 33.6095 53.2652C33.9606 52.8061 34.3993 52.4211 34.9002 52.1326C35.401 51.8441 35.9541 51.6577 36.5274 51.5842C37.1007 51.5108 37.6829 51.5517 38.2403 51.7046C38.7977 51.8576 39.3193 52.1195 39.7749 52.4752C40.23 52.7993 40.6132 53.2141 40.9003 53.6934C41.1874 54.1727 41.3723 54.7063 41.4433 55.2605C41.5143 55.8147 41.4699 56.3776 41.3129 56.9138C41.1559 57.45 40.8897 57.948 40.531 58.3764ZM47.0357 53.3354C47.2762 53.3142 47.5181 53.3567 47.7371 53.4586C47.956 53.5605 48.1443 53.7181 48.283 53.9158C48.4217 54.1135 48.506 54.3441 48.5273 54.5847C48.5487 54.8252 48.5064 55.0671 48.4047 55.2861L40.8255 71.7671C40.7269 71.9771 40.5764 72.1586 40.3882 72.2943C40.2 72.43 39.9803 72.5155 39.7499 72.5427C39.5099 72.5661 39.268 72.5254 39.0488 72.4249C38.8296 72.3244 38.641 72.1676 38.502 71.9706C38.3631 71.7735 38.2788 71.5431 38.2578 71.3029C38.2368 71.0627 38.2797 70.8212 38.3823 70.603L46.0166 54.115C46.1087 53.9109 46.2501 53.7329 46.4279 53.5968C46.6058 53.4608 46.8146 53.3709 47.0357 53.3354ZM35.9457 57.2629C36.3328 57.5505 36.8163 57.6769 37.2946 57.6156C37.7729 57.5543 38.2088 57.3101 38.511 56.9343C38.7294 56.649 38.8585 56.3054 38.882 55.9468C38.9055 55.5883 38.8223 55.2308 38.643 54.9194C38.4637 54.6081 38.1963 54.3567 37.8744 54.197C37.5525 54.0374 37.1906 53.9765 36.8342 54.0222C36.4778 54.0679 36.1429 54.218 35.8716 54.4537C35.6004 54.6893 35.405 55 35.31 55.3465C35.215 55.693 35.2246 56.0599 35.3378 56.401C35.4509 56.742 35.6624 57.0419 35.9457 57.2629ZM46.2134 67.5294C46.5655 67.0698 47.0051 66.6845 47.5068 66.3957C48.0085 66.1069 48.5625 65.9204 49.1367 65.8468C49.711 65.7732 50.2941 65.8141 50.8524 65.9671C51.4108 66.12 51.9333 66.382 52.3898 66.738C52.8409 67.0653 53.2203 67.4813 53.5046 67.9607C53.7889 68.44 53.9721 68.9725 54.0429 69.5252C54.1137 70.078 54.0707 70.6394 53.9164 71.175C53.7622 71.7105 53.4999 72.2088 53.1459 72.6392C52.7939 73.0987 52.3543 73.484 51.8525 73.7728C51.3508 74.0616 50.7968 74.2482 50.2226 74.3218C49.6484 74.3953 49.0653 74.3545 48.5069 74.2015C47.9486 74.0485 47.4261 73.7865 46.9695 73.4305C46.5184 73.1033 46.1391 72.6872 45.8548 72.2079C45.5705 71.7285 45.3873 71.1961 45.3165 70.6433C45.2456 70.0905 45.2887 69.5291 45.4429 68.9936C45.5972 68.4581 45.8594 67.9598 46.2134 67.5294ZM50.8289 68.6166C50.4389 68.337 49.9575 68.2154 49.4816 68.2764C49.0057 68.3374 48.5705 68.5764 48.2636 68.9453C47.9935 69.3382 47.8905 69.8223 47.9773 70.2912C47.9897 70.5419 48.0538 70.7874 48.1655 71.0121C48.2773 71.2369 48.4344 71.4361 48.6269 71.5972C48.8193 71.7584 49.0431 71.8779 49.284 71.9485C49.5249 72.019 49.7778 72.0389 50.0267 72.007C50.2757 71.9751 50.5154 71.8921 50.7308 71.7631C50.9461 71.6341 51.1325 71.462 51.2781 71.2575C51.4237 71.0531 51.5255 70.8207 51.577 70.575C51.6285 70.3293 51.6287 70.0757 51.5774 69.8299C51.5435 69.588 51.4606 69.3555 51.3337 69.1466C51.2069 68.9377 51.0389 68.7569 50.8399 68.6152L50.8289 68.6166Z" fill="#FFB663"/>
<circle cx="38.304" cy="38.6243" r="4.31571" fill="white"/>
<path fill-rule="evenodd" clip-rule="evenodd" d="M30.3293 20.5212C29.5769 22.4804 29.3547 25.1023 29.9243 27.9017C30.5896 31.1717 32.1488 33.7777 33.9071 35.2062C35.1613 36.2252 36.4202 36.5804 37.5321 36.3541C38.3048 36.1969 39.1406 35.3659 39.7615 34.6449C39.7615 34.6449 40.3759 34.7239 41.0122 35.258C41.6485 35.7922 41.8586 36.1438 41.8586 36.1438C40.9213 37.2321 39.484 38.6306 38.0544 38.9215C35.9651 39.3466 33.9298 38.6004 32.255 37.2396C29.9304 35.351 28.1161 32.1556 27.3569 28.424C26.7032 25.211 26.9266 22.0737 27.8836 19.5819C28.834 17.1071 30.5963 15.0911 33.1023 14.5812C35.6083 14.0714 38.0182 15.2385 39.8601 17.1453C41.7146 19.0651 43.1461 21.8657 43.7998 25.0787C44.2172 27.1305 44.2449 29.066 43.9885 30.896L41.4638 30.5974C41.6768 29.0773 41.5937 27.3766 41.2324 25.601C40.6629 22.8016 39.4339 20.475 37.9757 18.9655C36.505 17.443 34.9502 16.8789 33.6246 17.1486C32.299 17.4183 31.0883 18.545 30.3293 20.5212Z" fill="#00C65E"/>
</g>
<defs>
<clipPath id="clip0_1649_35211">
<rect width="100" height="104" fill="white" transform="translate(0.5 0.5)"/>
</clipPath>
</defs>
</svg>
