<svg width="101" height="105" viewBox="0 0 101 105" fill="none" xmlns="http://www.w3.org/2000/svg">
<g clip-path="url(#clip0_1649_35197)">
<path opacity="0.2" d="M94.7983 85.9882C92.8303 100.554 77.0919 108.837 63.971 102.213L21.0236 80.528C5.51134 72.6958 5.32479 50.612 20.7025 42.5188L70.0918 16.5252C85.4694 8.43198 103.567 21.0892 101.24 38.3101L94.7983 85.9882Z" fill="#00C65E"/>
<path d="M55.7358 104.023L42.7358 95.9327L29.7358 104.023L31.7658 52.9727H53.7158L55.7358 104.023Z" fill="#FA9458"/>
<path d="M70.566 53.6721C70.566 56.2521 62.626 57.5521 61.866 59.8821C61.106 62.2121 66.716 68.0121 65.246 70.0221C63.776 72.0321 56.586 68.4621 54.556 69.9421C52.526 71.4221 53.756 79.3521 51.336 80.1321C48.916 80.9121 45.336 73.7721 42.736 73.7721C40.136 73.7721 36.476 80.8921 34.136 80.1321C31.796 79.3721 32.916 71.4021 30.916 69.9421C28.916 68.4821 21.696 72.0621 20.216 70.0221C18.736 67.9821 24.396 62.3021 23.616 59.8821C22.836 57.4621 14.916 56.2521 14.916 53.6721C14.916 51.0921 22.856 49.7821 23.616 47.4521C24.376 45.1221 18.766 39.3221 20.226 37.3121C21.686 35.3021 28.916 38.8721 30.916 37.4021C32.916 35.9321 31.726 27.9821 34.136 27.2021C36.546 26.4221 40.136 33.5621 42.736 33.5621C45.336 33.5621 49.006 26.4421 51.336 27.2021C53.666 27.9621 52.546 35.9321 54.556 37.4021C56.566 38.8721 63.776 35.2721 65.246 37.3121C66.716 39.3521 61.086 45.0321 61.916 47.4521C62.746 49.8721 70.566 51.0821 70.566 53.6721Z" fill="#FFB663"/>
<path d="M42.7359 66.1329C49.6173 66.1329 55.1959 60.5544 55.1959 53.6729C55.1959 46.7914 49.6173 41.2129 42.7359 41.2129C35.8544 41.2129 30.2759 46.7914 30.2759 53.6729C30.2759 60.5544 35.8544 66.1329 42.7359 66.1329Z" fill="white"/>
<path d="M66.7962 33.5825C65.9457 32.789 64.8152 32.3655 63.6527 32.4049C62.4903 32.4442 61.3909 32.9433 60.5961 33.7925L43.6961 52.0825L38.9161 45.3625C38.2144 44.4799 37.1999 43.9011 36.083 43.7462C34.9661 43.5913 33.8324 43.8721 32.9169 44.5304C32.0014 45.1887 31.3743 46.1741 31.1657 47.2822C30.957 48.3904 31.1828 49.5363 31.7961 50.4825L39.4261 61.0625C39.649 61.5006 39.9507 61.8938 40.3161 62.2225C41.0669 62.9193 42.0426 63.3238 43.0661 63.3625C43.8156 63.4256 44.5683 63.2863 45.2456 62.9591C45.9228 62.6319 46.4998 62.1289 46.9161 61.5025L67.0161 39.7925C67.8089 38.9391 68.231 37.8061 68.1898 36.642C68.1485 35.4779 67.6474 34.3777 66.7962 33.5825Z" fill="#35B661"/>
</g>
<defs>
<clipPath id="clip0_1649_35197">
<rect width="100" height="104" fill="white" transform="translate(0.5 0.5)"/>
</clipPath>
</defs>
</svg>
