<svg width="21" height="21" viewBox="0 0 21 21" fill="none" xmlns="http://www.w3.org/2000/svg">
<circle cx="10.5" cy="10.5" r="9.5" fill="white" stroke="#00C65E"/>
<path d="M9.37114 12.4317L9.00943 5.0224C8.99914 4.81691 9.03076 4.61148 9.10237 4.4186C9.17398 4.22572 9.28408 4.04943 9.42597 3.90044C9.56787 3.75145 9.73858 3.63289 9.92774 3.55196C10.1169 3.47103 10.3205 3.42943 10.5263 3.42969V3.42969C10.7318 3.43026 10.9351 3.47242 11.1238 3.55363C11.3126 3.63485 11.483 3.75343 11.6247 3.90224C11.7664 4.05106 11.8766 4.22702 11.9485 4.41953C12.0204 4.61204 12.0526 4.81711 12.0432 5.0224L11.6581 12.4317C11.6581 13.0735 11.3722 13.3768 11.0105 13.3768H10.0887C9.70952 13.4002 9.43532 13.2135 9.37114 12.4317ZM9.37114 15.0279C9.52121 14.8829 9.69848 14.7692 9.89273 14.6931C10.087 14.617 10.2944 14.5801 10.503 14.5845C10.7106 14.5802 10.9171 14.6172 11.1104 14.6933C11.3037 14.7694 11.4799 14.8831 11.6289 15.0279C11.7761 15.1597 11.8939 15.3212 11.9745 15.5016C12.0551 15.6821 12.0968 15.8775 12.0968 16.0751C12.0968 16.2727 12.0551 16.4681 11.9745 16.6486C11.8939 16.829 11.7761 16.9904 11.6289 17.1223C11.4802 17.2679 11.3042 17.3825 11.1109 17.4596C10.9176 17.5367 10.711 17.5747 10.503 17.5715C10.294 17.5749 10.0865 17.5369 9.89224 17.4598C9.69802 17.3827 9.52093 17.268 9.37114 17.1223C9.22394 16.9904 9.1062 16.829 9.02559 16.6486C8.94498 16.4681 8.90332 16.2727 8.90332 16.0751C8.90332 15.8775 8.94498 15.6821 9.02559 15.5016C9.1062 15.3212 9.22394 15.1597 9.37114 15.0279V15.0279Z" stroke="#00C65E" stroke-width="0.7" stroke-miterlimit="10"/>
</svg>
