<svg width="1440" height="900" viewBox="0 0 1440 900" fill="none" xmlns="http://www.w3.org/2000/svg">
<g filter="url(#filter0_f_0_1)">
<path d="M189.5 1277C294.158 1277 379 1192.16 379 1087.5C379 982.842 294.158 898 189.5 898C84.842 898 0 982.842 0 1087.5C0 1192.16 84.842 1277 189.5 1277Z" fill="#00C65E"/>
</g>
<g filter="url(#filter1_f_0_1)">
<path d="M1548.5 379C1653.16 379 1738 294.158 1738 189.5C1738 84.842 1653.16 0 1548.5 0C1443.84 0 1359 84.842 1359 189.5C1359 294.158 1443.84 379 1548.5 379Z" fill="#00C65E"/>
</g>
<path fill-rule="evenodd" clip-rule="evenodd" d="M255.854 403.636C257.164 402.325 258.123 400.388 259.048 398.308C259.247 397.859 259.446 397.403 259.646 396.942L259.646 396.942C260.387 395.236 261.156 393.465 262.116 391.785C263.331 389.659 264.83 387.72 266.908 386.309C268.981 384.903 271.662 384 275.282 384C282.281 384 285.527 388.535 289.018 393.413L289.211 393.682C292.751 398.625 296.593 403.782 304.956 403.782V402.782C297.144 402.782 293.568 398.049 290.024 393.1L289.762 392.734C286.329 387.933 282.801 383 275.282 383C271.484 383 268.602 383.951 266.347 385.482C264.098 387.008 262.506 389.087 261.248 391.289C260.257 393.022 259.46 394.858 258.717 396.57L258.717 396.57C258.52 397.024 258.326 397.47 258.134 397.902C257.204 399.995 256.309 401.767 255.146 402.929C254.951 403.124 254.951 403.441 255.146 403.636C255.342 403.831 255.658 403.831 255.854 403.636ZM354.059 402.928C352.748 404.239 351.789 406.176 350.864 408.256C350.665 408.705 350.467 409.161 350.266 409.622C349.525 411.329 348.756 413.099 347.796 414.78C346.581 416.905 345.082 418.845 343.004 420.255C340.932 421.661 338.25 422.564 334.63 422.564C327.631 422.564 324.385 418.029 320.894 413.152L320.701 412.882C317.162 407.939 313.319 402.782 304.956 402.782L304.956 403.782C312.769 403.782 316.344 408.516 319.888 413.464L320.15 413.83C323.583 418.631 327.112 423.564 334.63 423.564C338.428 423.564 341.31 422.613 343.565 421.083C345.814 419.557 347.406 417.478 348.664 415.276C349.655 413.543 350.452 411.706 351.195 409.994C351.393 409.54 351.586 409.095 351.778 408.663C352.708 406.57 353.603 404.798 354.766 403.636C354.961 403.44 354.961 403.124 354.766 402.928C354.57 402.733 354.254 402.733 354.059 402.928Z" fill="#00FF0A"/>
<path fill-rule="evenodd" clip-rule="evenodd" d="M1130.85 450.636C1132.16 449.325 1133.12 447.388 1134.05 445.308C1134.25 444.859 1134.45 444.403 1134.65 443.942L1134.65 443.942C1135.39 442.236 1136.16 440.465 1137.12 438.785C1138.33 436.659 1139.83 434.72 1141.91 433.309C1143.98 431.903 1146.66 431 1150.28 431C1157.28 431 1160.53 435.535 1164.02 440.413L1164.21 440.682C1167.75 445.625 1171.59 450.782 1179.96 450.782V449.782C1172.14 449.782 1168.57 445.049 1165.02 440.1L1164.76 439.734C1161.33 434.933 1157.8 430 1150.28 430C1146.48 430 1143.6 430.951 1141.35 432.482C1139.1 434.008 1137.51 436.087 1136.25 438.289C1135.26 440.022 1134.46 441.858 1133.72 443.57L1133.72 443.57C1133.52 444.024 1133.33 444.47 1133.13 444.902C1132.2 446.995 1131.31 448.767 1130.15 449.929C1129.95 450.124 1129.95 450.441 1130.15 450.636C1130.34 450.831 1130.66 450.831 1130.85 450.636ZM1229.06 449.928C1227.75 451.239 1226.79 453.176 1225.86 455.256C1225.66 455.705 1225.47 456.161 1225.27 456.622C1224.53 458.329 1223.76 460.099 1222.8 461.78C1221.58 463.905 1220.08 465.845 1218 467.255C1215.93 468.661 1213.25 469.564 1209.63 469.564C1202.63 469.564 1199.38 465.029 1195.89 460.152L1195.7 459.882C1192.16 454.939 1188.32 449.782 1179.96 449.782V450.782C1187.77 450.782 1191.34 455.516 1194.89 460.464L1195.15 460.83C1198.58 465.631 1202.11 470.564 1209.63 470.564C1213.43 470.564 1216.31 469.613 1218.57 468.083C1220.81 466.557 1222.41 464.478 1223.66 462.276C1224.65 460.543 1225.45 458.706 1226.2 456.994C1226.39 456.54 1226.59 456.095 1226.78 455.663C1227.71 453.57 1228.6 451.798 1229.77 450.636C1229.96 450.44 1229.96 450.124 1229.77 449.928C1229.57 449.733 1229.25 449.733 1229.06 449.928Z" fill="#00FF0A"/>
<path fill-rule="evenodd" clip-rule="evenodd" d="M1058.76 187.589C1060.82 184.466 1061.74 180.744 1062.49 176.765C1062.65 175.915 1062.81 175.054 1062.96 174.183C1063.54 170.947 1064.15 167.572 1065.24 164.141C1066.63 159.803 1068.8 155.399 1072.68 151.174C1076.57 146.946 1082.19 142.877 1090.51 139.237C1098.81 135.606 1105.61 134.771 1111.71 135.298C1117.57 135.803 1122.8 137.564 1128.14 139.365L1128.85 139.603C1134.43 141.48 1140.17 143.338 1146.81 143.711C1153.45 144.084 1160.98 142.968 1170.18 138.947L1169.77 138.031C1160.71 141.995 1153.34 143.076 1146.86 142.712C1140.37 142.348 1134.75 140.533 1129.17 138.655L1128.43 138.407C1123.11 136.614 1117.78 134.817 1111.8 134.301C1105.52 133.76 1098.56 134.627 1090.11 138.32C1081.69 142.004 1075.94 146.147 1071.94 150.497C1067.94 154.849 1065.71 159.389 1064.29 163.837C1063.17 167.337 1062.55 170.796 1061.97 174.04L1061.97 174.04L1061.97 174.04C1061.82 174.902 1061.67 175.749 1061.51 176.578C1060.76 180.548 1059.87 184.096 1057.93 187.039C1057.78 187.27 1057.84 187.58 1058.07 187.732C1058.3 187.884 1058.61 187.82 1058.76 187.589ZM1281.19 89.3881C1279.13 92.5115 1278.21 96.2334 1277.46 100.213C1277.3 101.062 1277.14 101.923 1276.99 102.795C1276.41 106.03 1275.8 109.405 1274.71 112.836C1273.32 117.175 1271.15 121.578 1267.27 125.804C1263.39 130.031 1257.76 134.101 1249.44 137.741C1241.14 141.371 1234.34 142.206 1228.24 141.68C1222.38 141.174 1217.16 139.413 1211.81 137.612L1211.1 137.374C1205.52 135.497 1199.78 133.64 1193.14 133.267C1186.5 132.893 1178.97 134.009 1169.78 138.03L1170.18 138.946C1179.24 134.983 1186.61 133.901 1193.09 134.265C1199.58 134.63 1205.2 136.444 1210.78 138.322L1211.52 138.57C1216.84 140.364 1222.18 142.16 1228.16 142.676C1234.43 143.217 1241.4 142.351 1249.84 138.657C1258.26 134.973 1264.01 130.83 1268.01 126.48C1272.01 122.128 1274.24 117.588 1275.66 113.141C1276.78 109.64 1277.4 106.181 1277.98 102.938L1277.98 102.938C1278.13 102.075 1278.28 101.228 1278.44 100.399C1279.19 96.4292 1280.08 92.8816 1282.02 89.9381C1282.18 89.7075 1282.11 89.3974 1281.88 89.2455C1281.65 89.0936 1281.34 89.1574 1281.19 89.3881Z" fill="#00FF0A"/>
<path fill-rule="evenodd" clip-rule="evenodd" d="M193.763 710.589C195.82 707.466 196.737 703.744 197.493 699.765C197.654 698.915 197.808 698.054 197.964 697.183C198.543 693.947 199.147 690.572 200.243 687.141C201.628 682.803 203.796 678.399 207.68 674.174C211.566 669.946 217.188 665.877 225.511 662.237C233.81 658.606 240.61 657.771 246.709 658.298C252.567 658.803 257.796 660.564 263.144 662.365L263.851 662.603C269.433 664.48 275.168 666.338 281.806 666.711C288.455 667.084 295.983 665.968 305.176 661.947L304.775 661.031C295.713 664.995 288.341 666.076 281.862 665.712C275.373 665.348 269.753 663.533 264.169 661.655L263.431 661.407C258.108 659.614 252.775 657.817 246.795 657.301C240.522 656.76 233.555 657.627 225.11 661.32C216.688 665.004 210.942 669.147 206.943 673.497C202.943 677.849 200.711 682.389 199.29 686.837C198.172 690.337 197.553 693.796 196.974 697.04L196.974 697.04L196.974 697.04C196.819 697.902 196.668 698.749 196.51 699.578C195.756 703.548 194.866 707.096 192.928 710.039C192.776 710.27 192.84 710.58 193.07 710.732C193.301 710.884 193.611 710.82 193.763 710.589ZM416.188 612.388C414.131 615.512 413.214 619.233 412.458 623.213C412.296 624.062 412.142 624.923 411.987 625.795C411.408 629.03 410.804 632.405 409.708 635.836C408.323 640.175 406.155 644.578 402.271 648.804C398.385 653.031 392.762 657.101 384.44 660.741C376.14 664.371 369.341 665.206 363.242 664.68C357.384 664.174 352.155 662.413 346.807 660.612L346.1 660.374C340.518 658.497 334.783 656.64 328.144 656.267C321.496 655.893 313.968 657.009 304.775 661.03L305.176 661.946C314.238 657.983 321.61 656.901 328.088 657.265C334.577 657.63 340.197 659.444 345.781 661.322L346.519 661.57C351.843 663.364 357.175 665.16 363.156 665.676C369.429 666.217 376.395 665.351 384.841 661.657C393.263 657.973 399.009 653.83 403.007 649.48C407.008 645.128 409.24 640.588 410.661 636.141C411.779 632.64 412.397 629.181 412.977 625.938L412.977 625.938C413.131 625.075 413.283 624.228 413.44 623.399C414.194 619.429 415.085 615.882 417.023 612.938C417.175 612.707 417.111 612.397 416.881 612.245C416.65 612.094 416.34 612.157 416.188 612.388Z" fill="#00FF0A"/>
<path fill-rule="evenodd" clip-rule="evenodd" d="M234.426 137.819L237.994 142.358L238.882 140.142L301.483 165.224L270.087 178.658L257.488 173.61L256.16 170.507L252.407 172.113L254.013 175.867L257.116 174.539L269.907 179.664L270.1 179.741L270.29 179.659L302.796 165.75L334.285 178.366L334.657 177.438L303.168 164.822L289.259 132.315L289.177 132.125L288.985 132.048L276.41 127.01C276.652 125.777 275.992 124.508 274.784 124.024C273.417 123.476 271.864 124.141 271.317 125.508C270.769 126.875 271.433 128.427 272.8 128.975C274.009 129.459 275.362 128.996 276.038 127.938L288.421 132.899L301.855 164.296L239.254 139.214L240.141 136.999L234.426 137.819Z" fill="#00FF0A"/>
<path fill-rule="evenodd" clip-rule="evenodd" d="M1212.08 718.867L1210.03 713.469L1208.53 715.318L1156.28 672.675L1190.26 669.237L1200.77 677.819L1201.11 681.177L1205.17 680.766L1204.76 676.704L1201.4 677.044L1190.73 668.331L1190.57 668.2L1190.36 668.221L1155.18 671.781L1128.9 650.331L1128.27 651.106L1154.55 672.555L1158.11 707.733L1158.13 707.939L1158.29 708.07L1168.79 716.636C1168.19 717.74 1168.44 719.148 1169.45 719.971C1170.59 720.902 1172.27 720.732 1173.2 719.591C1174.13 718.45 1173.96 716.77 1172.82 715.839C1171.81 715.016 1170.38 715.053 1169.42 715.861L1159.09 707.426L1155.65 673.449L1207.89 716.093L1206.38 717.942L1212.08 718.867Z" fill="#00FF0A"/>
<defs>
<filter id="filter0_f_0_1" x="-550" y="348" width="1479" height="1479" filterUnits="userSpaceOnUse" color-interpolation-filters="sRGB">
<feFlood flood-opacity="0" result="BackgroundImageFix"/>
<feBlend mode="normal" in="SourceGraphic" in2="BackgroundImageFix" result="shape"/>
<feGaussianBlur stdDeviation="275" result="effect1_foregroundBlur_0_1"/>
</filter>
<filter id="filter1_f_0_1" x="809" y="-550" width="1479" height="1479" filterUnits="userSpaceOnUse" color-interpolation-filters="sRGB">
<feFlood flood-opacity="0" result="BackgroundImageFix"/>
<feBlend mode="normal" in="SourceGraphic" in2="BackgroundImageFix" result="shape"/>
<feGaussianBlur stdDeviation="275" result="effect1_foregroundBlur_0_1"/>
</filter>
</defs>
</svg>
